<svg width="237" height="227" viewBox="0 0 237 227" fill="none" xmlns="http://www.w3.org/2000/svg">
<path d="M99.6164 89.2935V91.5675C107.073 94.4351 113.287 99.8291 117.174 106.809C121.061 113.789 122.374 121.911 120.886 129.76C119.397 137.61 115.201 144.687 109.028 149.759C102.855 154.831 95.0982 157.575 87.1093 157.514H42.7663C34.8728 157.317 27.292 154.389 21.3168 149.227C15.3416 144.065 11.3421 136.991 10.0005 129.21C8.65897 121.429 10.0584 113.423 13.9602 106.559C17.8619 99.6942 24.0243 94.3959 31.3962 91.5675V89.2935C31.3962 80.247 34.99 71.571 41.3868 65.1741C47.7837 58.7772 56.4597 55.1835 65.5063 55.1835C74.5529 55.1835 83.2289 58.7772 89.6258 65.1741C96.0227 71.571 99.6164 80.247 99.6164 89.2935Z" stroke="white" stroke-width="18" stroke-linecap="round" stroke-linejoin="round"/>
<path d="M65.5063 157.514V225.734" stroke="white" stroke-width="18" stroke-linecap="round" stroke-linejoin="round"/>
<path d="M121.726 191.624V225.734" stroke="white" stroke-width="18" stroke-linecap="round" stroke-linejoin="round"/>
<path d="M122.356 191.624H216.728C218.953 191.593 221.12 190.909 222.961 189.657C224.801 188.406 226.234 186.642 227.082 184.584C227.929 182.526 228.154 180.265 227.728 178.08C227.302 175.895 226.245 173.884 224.687 172.295L190.577 134.774H193.988C196.213 134.742 198.38 134.059 200.221 132.807C202.061 131.556 203.494 129.792 204.342 127.734C205.189 125.676 205.414 123.414 204.988 121.23C204.562 119.045 203.505 117.034 201.947 115.445L167.837 77.9235H170.111C172.433 78.133 174.764 77.6234 176.787 76.4638C178.81 75.3042 180.427 73.5506 181.42 71.4408C182.413 69.331 182.733 66.9669 182.337 64.669C181.941 62.371 180.848 60.2504 179.207 58.5945L133.727 9.70337L117.808 26.7584" stroke="white" stroke-width="18" stroke-linecap="round" stroke-linejoin="round"/>
<path d="M67.843 99.12L67.403 119.12H64.363L63.923 99.12H67.843ZM66.043 127.24C65.3496 127.24 64.763 127 64.283 126.52C63.803 126.04 63.563 125.453 63.563 124.76C63.563 124.067 63.803 123.48 64.283 123C64.763 122.52 65.3496 122.28 66.043 122.28C66.7096 122.28 67.2696 122.52 67.723 123C68.203 123.48 68.443 124.067 68.443 124.76C68.443 125.453 68.203 126.04 67.723 126.52C67.2696 127 66.7096 127.24 66.043 127.24Z" fill="white"/>
</svg>
